<mxfile host="app.diagrams.net" modified="2022-09-07T10:08:01.572Z" agent="5.0 (Macintosh)" etag="UcikpcQidvyZRlEjqGZB" version="20.2.8" type="github">
  <diagram id="1HFoKZ7HmbYaqoWhvM2N" name="Page-1">
    <mxGraphModel dx="827" dy="513" grid="1" gridSize="10" guides="1" tooltips="1" connect="1" arrows="1" fold="1" page="1" pageScale="1" pageWidth="850" pageHeight="1100" math="0" shadow="0">
      <root>
        <mxCell id="0" />
        <mxCell id="1" parent="0" />
        <mxCell id="fpnA1gOJu9WvSEtu6Hov-1" value="&lt;div&gt;Admin&lt;/div&gt;" style="shape=umlActor;verticalLabelPosition=bottom;verticalAlign=top;html=1;outlineConnect=0;" vertex="1" parent="1">
          <mxGeometry x="395" y="40" width="30" height="60" as="geometry" />
        </mxCell>
        <mxCell id="fpnA1gOJu9WvSEtu6Hov-2" value="&lt;div&gt;Manager&lt;/div&gt;" style="shape=umlActor;verticalLabelPosition=bottom;verticalAlign=top;html=1;outlineConnect=0;" vertex="1" parent="1">
          <mxGeometry x="610" y="100" width="30" height="60" as="geometry" />
        </mxCell>
        <mxCell id="fpnA1gOJu9WvSEtu6Hov-3" value="&lt;div&gt;Collaborateur&lt;/div&gt;" style="shape=umlActor;verticalLabelPosition=bottom;verticalAlign=top;html=1;outlineConnect=0;" vertex="1" parent="1">
          <mxGeometry x="370" y="340" width="30" height="60" as="geometry" />
        </mxCell>
        <mxCell id="fpnA1gOJu9WvSEtu6Hov-6" value="" style="endArrow=block;html=1;rounded=0;endFill=0;endSize=11;" edge="1" parent="1" source="fpnA1gOJu9WvSEtu6Hov-1">
          <mxGeometry width="50" height="50" relative="1" as="geometry">
            <mxPoint x="430" y="280" as="sourcePoint" />
            <mxPoint x="340" y="410" as="targetPoint" />
            <Array as="points">
              <mxPoint x="160" y="70" />
              <mxPoint x="160" y="410" />
            </Array>
          </mxGeometry>
        </mxCell>
        <mxCell id="fpnA1gOJu9WvSEtu6Hov-7" value="" style="endArrow=block;html=1;rounded=0;endFill=0;endSize=11;startSize=6;" edge="1" parent="1" source="fpnA1gOJu9WvSEtu6Hov-2">
          <mxGeometry width="50" height="50" relative="1" as="geometry">
            <mxPoint x="690" y="280" as="sourcePoint" />
            <mxPoint x="430" y="410" as="targetPoint" />
            <Array as="points">
              <mxPoint x="720" y="130" />
              <mxPoint x="720" y="410" />
            </Array>
          </mxGeometry>
        </mxCell>
        <mxCell id="fpnA1gOJu9WvSEtu6Hov-8" value="&lt;div&gt;Ajouter une nature&lt;/div&gt;&lt;div&gt;à une mission&lt;/div&gt;" style="ellipse;whiteSpace=wrap;html=1;fillColor=#d5e8d4;strokeColor=#82b366;" vertex="1" parent="1">
          <mxGeometry x="210" y="100" width="140" height="50" as="geometry" />
        </mxCell>
        <mxCell id="fpnA1gOJu9WvSEtu6Hov-11" value="&lt;div&gt;Lister les natures&lt;/div&gt;" style="ellipse;whiteSpace=wrap;html=1;fillColor=#d5e8d4;strokeColor=#82b366;" vertex="1" parent="1">
          <mxGeometry x="210" y="160" width="140" height="40" as="geometry" />
        </mxCell>
        <mxCell id="fpnA1gOJu9WvSEtu6Hov-12" value="&lt;div&gt;Créer une nature&lt;/div&gt;" style="ellipse;whiteSpace=wrap;html=1;fillColor=#d5e8d4;strokeColor=#82b366;" vertex="1" parent="1">
          <mxGeometry x="210" y="210" width="140" height="30" as="geometry" />
        </mxCell>
        <mxCell id="fpnA1gOJu9WvSEtu6Hov-13" value="&lt;div&gt;Modifier une nature&lt;/div&gt;" style="ellipse;whiteSpace=wrap;html=1;fillColor=#d5e8d4;strokeColor=#82b366;" vertex="1" parent="1">
          <mxGeometry x="210" y="250" width="140" height="40" as="geometry" />
        </mxCell>
        <mxCell id="fpnA1gOJu9WvSEtu6Hov-14" value="&lt;div&gt;Supprimer une nature&lt;/div&gt;" style="ellipse;whiteSpace=wrap;html=1;fillColor=#d5e8d4;strokeColor=#82b366;" vertex="1" parent="1">
          <mxGeometry x="210" y="300" width="140" height="40" as="geometry" />
        </mxCell>
        <mxCell id="fpnA1gOJu9WvSEtu6Hov-16" value="" style="endArrow=none;html=1;rounded=0;startSize=6;endSize=11;exitX=1;exitY=0.5;exitDx=0;exitDy=0;" edge="1" parent="1" source="fpnA1gOJu9WvSEtu6Hov-8">
          <mxGeometry width="50" height="50" relative="1" as="geometry">
            <mxPoint x="430" y="310" as="sourcePoint" />
            <mxPoint x="390" y="80" as="targetPoint" />
            <Array as="points">
              <mxPoint x="360" y="80" />
              <mxPoint x="390" y="80" />
            </Array>
          </mxGeometry>
        </mxCell>
        <mxCell id="fpnA1gOJu9WvSEtu6Hov-17" value="" style="endArrow=none;html=1;rounded=0;startSize=6;endSize=11;exitX=1;exitY=0.5;exitDx=0;exitDy=0;" edge="1" parent="1" source="fpnA1gOJu9WvSEtu6Hov-11">
          <mxGeometry width="50" height="50" relative="1" as="geometry">
            <mxPoint x="350" y="190" as="sourcePoint" />
            <mxPoint x="390" y="90" as="targetPoint" />
            <Array as="points">
              <mxPoint x="370" y="90" />
            </Array>
          </mxGeometry>
        </mxCell>
        <mxCell id="fpnA1gOJu9WvSEtu6Hov-19" value="" style="endArrow=none;html=1;rounded=0;startSize=6;endSize=11;exitX=1;exitY=0.5;exitDx=0;exitDy=0;" edge="1" parent="1" source="fpnA1gOJu9WvSEtu6Hov-12">
          <mxGeometry width="50" height="50" relative="1" as="geometry">
            <mxPoint x="350" y="220" as="sourcePoint" />
            <mxPoint x="390" y="110" as="targetPoint" />
            <Array as="points">
              <mxPoint x="380" y="110" />
            </Array>
          </mxGeometry>
        </mxCell>
        <mxCell id="fpnA1gOJu9WvSEtu6Hov-20" value="" style="endArrow=none;html=1;rounded=0;startSize=6;endSize=11;exitX=1;exitY=0.5;exitDx=0;exitDy=0;" edge="1" parent="1" source="fpnA1gOJu9WvSEtu6Hov-13">
          <mxGeometry width="50" height="50" relative="1" as="geometry">
            <mxPoint x="350" y="290" as="sourcePoint" />
            <mxPoint x="400" y="120" as="targetPoint" />
            <Array as="points" />
          </mxGeometry>
        </mxCell>
        <mxCell id="fpnA1gOJu9WvSEtu6Hov-21" value="" style="endArrow=none;html=1;rounded=0;startSize=6;endSize=11;exitX=1;exitY=0.5;exitDx=0;exitDy=0;" edge="1" parent="1" source="fpnA1gOJu9WvSEtu6Hov-14">
          <mxGeometry width="50" height="50" relative="1" as="geometry">
            <mxPoint x="330" y="330" as="sourcePoint" />
            <mxPoint x="420" y="120" as="targetPoint" />
          </mxGeometry>
        </mxCell>
      </root>
    </mxGraphModel>
  </diagram>
</mxfile>
